<svg xmlns="http://www.w3.org/2000/svg" width="300" height="410" viewBox="0 0 300 410" role="img" aria-labelledby="title desc"><title id="title">DuitNow QR MASIDAH BINTI MAT SAAD</title><desc id="desc">Kod QR pembayaran peniaga untuk MASIDAH BINTI MAT SAAD.</desc><rect width="300" height="410" fill="#fff"/><text x="150" y="34" text-anchor="middle" font-family="Arial,Helvetica,sans-serif" font-size="16" font-weight="700" fill="#222">MASIDAH BINTI MAT SAAD</text><rect x="18" y="54" width="264" height="334" rx="12" fill="#ed2464"/><rect x="30" y="66" width="240" height="270" rx="10" fill="#fff"/><path d="M57 92h35v5h-35zM107 92h20v5h-20zM137 92h5v5h-5zM157 92h25v5h-25zM187 92h5v5h-5zM197 92h5v5h-5zM207 92h35v5h-35zM57 97h5v5h-5zM87 97h5v5h-5zM97 97h5v5h-5zM107 97h10v5h-10zM127 97h5v5h-5zM147 97h10v5h-10zM162 97h15v5h-15zM192 97h5v5h-5zM207 97h5v5h-5zM237 97h5v5h-5zM57 102h5v5h-5zM67 102h15v5h-15zM87 102h5v5h-5zM102 102h10v5h-10zM137 102h10v5h-10zM152 102h15v5h-15zM172 102h10v5h-10zM197 102h5v5h-5zM207 102h5v5h-5zM217 102h15v5h-15zM237 102h5v5h-5zM57 107h5v5h-5zM67 107h15v5h-15zM87 107h5v5h-5zM102 107h5v5h-5zM117 107h25v5h-25zM152 107h10v5h-10zM167 107h5v5h-5zM192 107h10v5h-10zM207 107h5v5h-5zM217 107h15v5h-15zM237 107h5v5h-5zM57 112h5v5h-5zM67 112h15v5h-15zM87 112h5v5h-5zM97 112h5v5h-5zM107 112h5v5h-5zM127 112h20v5h-20zM157 112h5v5h-5zM167 112h5v5h-5zM177 112h10v5h-10zM197 112h5v5h-5zM207 112h5v5h-5zM217 112h15v5h-15zM237 112h5v5h-5zM57 117h5v5h-5zM87 117h5v5h-5zM122 117h10v5h-10zM137 117h10v5h-10zM162 117h15v5h-15zM187 117h10v5h-10zM207 117h5v5h-5zM237 117h5v5h-5zM57 122h35v5h-35zM97 122h5v5h-5zM107 122h5v5h-5zM117 122h5v5h-5zM127 122h5v5h-5zM137 122h5v5h-5zM147 122h5v5h-5zM157 122h5v5h-5zM167 122h5v5h-5zM177 122h5v5h-5zM187 122h5v5h-5zM197 122h5v5h-5zM207 122h35v5h-35zM102 127h5v5h-5zM117 127h10v5h-10zM132 127h5v5h-5zM142 127h5v5h-5zM162 127h10v5h-10zM182 127h5v5h-5zM192 127h5v5h-5zM57 132h5v5h-5zM67 132h5v5h-5zM77 132h5v5h-5zM87 132h5v5h-5zM107 132h5v5h-5zM132 132h10v5h-10zM147 132h15v5h-15zM167 132h10v5h-10zM187 132h5v5h-5zM197 132h5v5h-5zM217 132h5v5h-5zM232 132h5v5h-5zM62 137h25v5h-25zM92 137h10v5h-10zM107 137h10v5h-10zM127 137h15v5h-15zM152 137h5v5h-5zM162 137h10v5h-10zM187 137h10v5h-10zM207 137h15v5h-15zM232 137h10v5h-10zM62 142h5v5h-5zM72 142h10v5h-10zM87 142h5v5h-5zM102 142h10v5h-10zM117 142h10v5h-10zM132 142h10v5h-10zM147 142h10v5h-10zM162 142h5v5h-5zM172 142h5v5h-5zM187 142h5v5h-5zM197 142h5v5h-5zM207 142h20v5h-20zM237 142h5v5h-5zM82 147h5v5h-5zM97 147h15v5h-15zM137 147h20v5h-20zM167 147h20v5h-20zM192 147h5v5h-5zM202 147h10v5h-10zM227 147h5v5h-5zM237 147h5v5h-5zM57 152h10v5h-10zM72 152h45v5h-45zM127 152h15v5h-15zM157 152h5v5h-5zM167 152h5v5h-5zM177 152h5v5h-5zM187 152h15v5h-15zM207 152h10v5h-10zM222 152h5v5h-5zM237 152h5v5h-5zM62 157h10v5h-10zM77 157h5v5h-5zM92 157h15v5h-15zM117 157h15v5h-15zM147 157h10v5h-10zM177 157h10v5h-10zM192 157h5v5h-5zM202 157h5v5h-5zM222 157h20v5h-20zM77 162h5v5h-5zM87 162h5v5h-5zM97 162h5v5h-5zM117 162h5v5h-5zM127 162h20v5h-20zM157 162h15v5h-15zM177 162h5v5h-5zM187 162h5v5h-5zM197 162h10v5h-10zM217 162h5v5h-5zM227 162h5v5h-5zM237 162h5v5h-5zM57 167h10v5h-10zM97 167h10v5h-10zM117 167h15v5h-15zM137 167h5v5h-5zM152 167h5v5h-5zM167 167h30v5h-30zM202 167h15v5h-15zM222 167h5v5h-5zM232 167h10v5h-10zM57 172h5v5h-5zM87 172h15v5h-15zM117 172h5v5h-5zM132 172h5v5h-5zM157 172h10v5h-10zM187 172h5v5h-5zM212 172h10v5h-10zM227 172h5v5h-5zM62 177h25v5h-25zM92 177h5v5h-5zM102 177h5v5h-5zM112 177h5v5h-5zM122 177h15v5h-15zM142 177h5v5h-5zM167 177h5v5h-5zM182 177h5v5h-5zM197 177h10v5h-10zM212 177h15v5h-15zM232 177h5v5h-5zM57 182h10v5h-10zM82 182h20v5h-20zM112 182h15v5h-15zM142 182h10v5h-10zM157 182h15v5h-15zM187 182h5v5h-5zM197 182h5v5h-5zM207 182h5v5h-5zM237 182h5v5h-5zM57 187h5v5h-5zM67 187h5v5h-5zM77 187h5v5h-5zM92 187h5v5h-5zM102 187h25v5h-25zM132 187h5v5h-5zM142 187h5v5h-5zM167 187h5v5h-5zM182 187h5v5h-5zM202 187h5v5h-5zM232 187h5v5h-5zM62 192h5v5h-5zM72 192h10v5h-10zM87 192h10v5h-10zM102 192h15v5h-15zM122 192h5v5h-5zM137 192h25v5h-25zM177 192h15v5h-15zM197 192h5v5h-5zM217 192h15v5h-15zM237 192h5v5h-5zM57 197h5v5h-5zM67 197h5v5h-5zM82 197h5v5h-5zM92 197h10v5h-10zM112 197h5v5h-5zM127 197h10v5h-10zM142 197h5v5h-5zM152 197h5v5h-5zM162 197h5v5h-5zM187 197h10v5h-10zM202 197h10v5h-10zM222 197h10v5h-10zM237 197h5v5h-5zM57 202h5v5h-5zM82 202h15v5h-15zM102 202h5v5h-5zM112 202h15v5h-15zM137 202h5v5h-5zM147 202h25v5h-25zM177 202h5v5h-5zM187 202h5v5h-5zM197 202h5v5h-5zM232 202h5v5h-5zM57 207h5v5h-5zM82 207h5v5h-5zM97 207h5v5h-5zM107 207h15v5h-15zM132 207h5v5h-5zM142 207h20v5h-20zM167 207h20v5h-20zM192 207h20v5h-20zM222 207h5v5h-5zM232 207h5v5h-5zM57 212h50v5h-50zM112 212h20v5h-20zM137 212h5v5h-5zM147 212h25v5h-25zM177 212h15v5h-15zM202 212h10v5h-10zM217 212h10v5h-10zM232 212h5v5h-5zM62 217h5v5h-5zM72 217h10v5h-10zM92 217h5v5h-5zM107 217h5v5h-5zM117 217h5v5h-5zM132 217h25v5h-25zM162 217h25v5h-25zM192 217h5v5h-5zM202 217h15v5h-15zM222 217h5v5h-5zM232 217h5v5h-5zM57 222h5v5h-5zM67 222h10v5h-10zM87 222h15v5h-15zM107 222h15v5h-15zM132 222h10v5h-10zM147 222h5v5h-5zM157 222h5v5h-5zM172 222h20v5h-20zM207 222h20v5h-20zM237 222h5v5h-5zM62 227h15v5h-15zM92 227h5v5h-5zM102 227h15v5h-15zM122 227h10v5h-10zM137 227h15v5h-15zM162 227h5v5h-5zM202 227h5v5h-5zM217 227h5v5h-5zM57 232h5v5h-5zM67 232h5v5h-5zM87 232h20v5h-20zM122 232h5v5h-5zM132 232h10v5h-10zM147 232h5v5h-5zM157 232h10v5h-10zM177 232h5v5h-5zM187 232h5v5h-5zM197 232h25v5h-25zM232 232h10v5h-10zM97 237h30v5h-30zM132 237h5v5h-5zM147 237h10v5h-10zM162 237h10v5h-10zM197 237h5v5h-5zM217 237h5v5h-5zM232 237h10v5h-10zM57 242h35v5h-35zM112 242h10v5h-10zM127 242h5v5h-5zM137 242h10v5h-10zM162 242h10v5h-10zM177 242h5v5h-5zM192 242h10v5h-10zM207 242h5v5h-5zM217 242h5v5h-5zM227 242h15v5h-15zM57 247h5v5h-5zM87 247h5v5h-5zM112 247h10v5h-10zM137 247h5v5h-5zM152 247h5v5h-5zM162 247h5v5h-5zM172 247h20v5h-20zM197 247h5v5h-5zM217 247h5v5h-5zM227 247h10v5h-10zM57 252h5v5h-5zM67 252h15v5h-15zM87 252h5v5h-5zM97 252h10v5h-10zM112 252h10v5h-10zM127 252h10v5h-10zM157 252h20v5h-20zM182 252h10v5h-10zM197 252h35v5h-35zM237 252h5v5h-5zM57 257h5v5h-5zM67 257h15v5h-15zM87 257h5v5h-5zM102 257h35v5h-35zM142 257h5v5h-5zM162 257h5v5h-5zM187 257h10v5h-10zM202 257h15v5h-15zM222 257h5v5h-5zM232 257h5v5h-5zM57 262h5v5h-5zM67 262h15v5h-15zM87 262h5v5h-5zM97 262h5v5h-5zM107 262h5v5h-5zM117 262h5v5h-5zM147 262h5v5h-5zM157 262h5v5h-5zM167 262h15v5h-15zM187 262h5v5h-5zM207 262h5v5h-5zM222 262h10v5h-10zM237 262h5v5h-5zM57 267h5v5h-5zM87 267h5v5h-5zM107 267h10v5h-10zM122 267h15v5h-15zM142 267h5v5h-5zM152 267h5v5h-5zM177 267h5v5h-5zM197 267h20v5h-20zM222 267h5v5h-5zM57 272h35v5h-35zM97 272h5v5h-5zM107 272h5v5h-5zM122 272h5v5h-5zM142 272h5v5h-5zM157 272h5v5h-5zM187 272h15v5h-15zM217 272h5v5h-5zM227 272h5v5h-5zM237 272h5v5h-5z" fill="#ed2464" shape-rendering="crispEdges"/><text x="150" y="366" text-anchor="middle" font-family="Arial,Helvetica,sans-serif" font-size="14" font-weight="700" fill="#fff">MALAYSIA NATIONAL QR</text></svg>